<?xml version="1.0" encoding="iso-8859-1"?>
<!-- Generator: Adobe Illustrator 19.0.0, SVG Export Plug-In . SVG Version: 6.00 Build 0)  -->
<svg version="1.1" id="Layer_1" xmlns="http://www.w3.org/2000/svg" xmlns:xlink="http://www.w3.org/1999/xlink" x="0px" y="0px"
	 viewBox="0 0 512.001 512.001" style="enable-background:new 0 0 512.001 512.001;" xml:space="preserve">
<g>
	<path style="fill:#364A57;" d="M493.789,172.583c-24.056-24.053-63.006-25.118-87.061-1.063
		C385.782,108.33,326.216,62.513,256,62.506c-70.216,0.008-129.783,45.824-150.728,109.015
		c-24.054-24.055-63.006-23.106-87.061,0.946c-24.055,24.055-24.395,63.522-0.34,87.578l82.431,56.304l55.456,40.961h200.518
		l55.421-40.931l82.431-56.276C518.182,236.047,517.845,196.638,493.789,172.583z"/>
	<polygon style="fill:#364A57;" points="255.985,62.506 256.001,62.506 256.018,62.506 	"/>
</g>
<path id="SVGCleanerId_0" style="fill:#364A57;" d="M215.966,232.352c-10.05,0-18.198-8.148-18.198-18.198v-7.279
	c0-10.05,8.148-18.198,18.198-18.198s18.198,8.148,18.198,18.198v7.279C234.164,224.204,226.016,232.352,215.966,232.352z"/>
<g>
	<path style="fill:#CE9696;" d="M100.09,264.593c-2.792,0-5.615-0.77-8.142-2.383l-41.986-26.782
		c-7.061-4.503-9.133-13.879-4.63-20.941c4.505-7.058,13.88-9.133,20.941-4.628l41.986,26.782c7.061,4.503,9.134,13.879,4.63,20.941
		C109.997,262.115,105.096,264.593,100.09,264.593z"/>
	<path style="fill:#CE9696;" d="M411.912,264.593c-5.007,0-9.907-2.477-12.799-7.011c-4.505-7.061-2.431-16.437,4.63-20.942
		l41.987-26.782c7.06-4.502,16.437-2.431,20.941,4.63c4.503,7.061,2.431,16.437-4.63,20.942l-41.987,26.782
		C417.526,263.823,414.702,264.593,411.912,264.593z"/>
</g>
<path style="fill:#476172;" d="M255.395,62.518c-69.951,0.272-129.237,45.996-150.121,109.002
	c-24.054-24.055-63.006-23.106-87.061,0.946c-24.055,24.055-24.394,63.522-0.34,87.578l82.431,56.304l55.456,40.961h99.634
	L255.395,62.518L255.395,62.518z"/>
<path style="fill:#EAA9A9;" d="M100.09,264.593c-2.792,0-5.615-0.77-8.142-2.383l-41.986-26.782
	c-7.061-4.503-9.133-13.879-4.63-20.941c4.505-7.058,13.88-9.133,20.941-4.628l41.986,26.782c7.061,4.503,9.134,13.879,4.63,20.941
	C109.997,262.115,105.096,264.593,100.09,264.593z"/>
<path style="fill:#96A8B0;" d="M367.064,171.375c-16.071-32.14-54.496-60.01-110.96-36.362
	c-56.298-23.549-94.707,4.434-110.82,36.652c-10.591,21.18-13.634,46.756-8.349,70.172c3.701,16.394,11.224,30.669,21.814,41.939
	c-10.831,12.14-17.532,28.641-17.532,50.917c0,4.179,0.23,8.304,0.668,12.37c6.19,57.506,55.01,102.433,114.132,102.433
	s107.942-44.926,114.132-102.431c0.438-4.065,0.668-8.191,0.668-12.371c0-22.607-6.899-39.266-18.015-51.456
	c10.892-11.296,18.629-25.694,22.423-42.248C380.552,217.768,377.576,192.394,367.064,171.375z"/>
<path style="fill:#B9CED9;" d="M255.395,134.725c-55.91-23.018-94.067,4.859-110.11,36.939
	c-10.591,21.18-13.634,46.756-8.349,70.172c3.701,16.394,11.224,30.669,21.814,41.939c-10.831,12.14-17.532,28.641-17.532,50.917
	c0,4.179,0.23,8.304,0.668,12.37c6.167,57.302,54.667,102.102,113.508,102.417L255.395,134.725L255.395,134.725z"/>
<path style="fill:#CE9696;" d="M339.938,184.881c15.381,30.758,6.451,63.316-12.404,80.347c-1.607-0.745-3.233-1.468-4.893-2.136
	c-20.32-8.183-44.378-10.768-66.623-10.768c-22.62,0-47.112,2.663-67.644,11.177c-1.586,0.658-3.139,1.349-4.674,2.078
	c-18.29-17.393-26.629-49.729-11.289-80.404c6.829-13.656,27.8-42.807,75.748-20.641c2.306,1.398,5.003,2.073,7.852,2.073h0.192
	c2.85,0,5.546-0.677,7.854-2.075C312.201,142.263,333.136,171.279,339.938,184.881z"/>
<path style="fill:#EAA9A9;" d="M255.395,166.568c-2.618-0.092-5.098-0.741-7.237-2.037c-47.946-22.166-68.919,6.986-75.748,20.641
	c-15.341,30.675-7.001,63.01,11.289,80.404c1.536-0.729,3.089-1.419,4.674-2.078c20.344-8.435,44.574-11.124,67.02-11.172v-85.758
	H255.395z"/>
<g>
	<path style="fill:#364A57;" d="M296.037,232.352c-10.05,0-18.198-8.148-18.198-18.198v-7.279c0-10.05,8.148-18.198,18.198-18.198
		c10.05,0,18.198,8.148,18.198,18.198v7.279C314.234,224.204,306.087,232.352,296.037,232.352z"/>
	<path style="fill:#364A57;" d="M256.224,347.37c-5.037,0-9.906-2.088-13.346-5.766l-15.714-16.8
		c-6.865-7.34-6.481-18.855,0.859-25.721c7.34-6.867,18.855-6.482,25.722,0.858l2.479,2.651l2.452-2.611
		c6.879-7.326,18.396-7.689,25.723-0.808c7.326,6.88,7.688,18.397,0.809,25.723l-15.714,16.735
		C266.049,345.292,261.249,347.37,256.224,347.37z"/>
</g>
<g>
	<path id="SVGCleanerId_0_1_" style="fill:#364A57;" d="M215.966,232.352c-10.05,0-18.198-8.148-18.198-18.198v-7.279
		c0-10.05,8.148-18.198,18.198-18.198s18.198,8.148,18.198,18.198v7.279C234.164,224.204,226.016,232.352,215.966,232.352z"/>
</g>
<path style="fill:#476172;" d="M255.395,301.708l-1.652-1.768c-6.867-7.34-18.382-7.724-25.722-0.858
	c-7.34,6.865-7.724,18.381-0.859,25.721l15.714,16.8c3.251,3.476,7.78,5.508,12.518,5.724v-45.619H255.395z"/>
<g>
</g>
<g>
</g>
<g>
</g>
<g>
</g>
<g>
</g>
<g>
</g>
<g>
</g>
<g>
</g>
<g>
</g>
<g>
</g>
<g>
</g>
<g>
</g>
<g>
</g>
<g>
</g>
<g>
</g>
</svg>
